<svg width="28" height="28" viewBox="0 0 28 28" fill="none" xmlns="http://www.w3.org/2000/svg">
    <path fill-rule="evenodd" clip-rule="evenodd" d="M24.111 6H3.89c-1.064 0-1.926.895-1.926 2v12c0 1.105.862 2 1.926 2H24.11c1.064 0 1.926-.895 1.926-2V8c0-1.105-.862-2-1.926-2zM3.89 5C2.293 5 1 6.343 1 8v12c0 1.657 1.293 3 2.889 3H24.11C25.707 23 27 21.657 27 20V8c0-1.657-1.293-3-2.889-3H3.89z" fill="#184E9E"/>
    <path fill-rule="evenodd" clip-rule="evenodd" d="M24.111 6H3.89c-1.064 0-1.926.895-1.926 2v12c0 1.105.862 2 1.926 2H24.11c1.064 0 1.926-.895 1.926-2V8c0-1.105-.862-2-1.926-2zM3.89 5C2.293 5 1 6.343 1 8v12c0 1.657 1.293 3 2.889 3H24.11C25.707 23 27 21.657 27 20V8c0-1.657-1.293-3-2.889-3H3.89z" fill="#184E9E"/>
    <path d="M4.762 11.514V13H4V9h1.678c.49 0 .879.116 1.166.349.29.232.434.54.434.923 0 .392-.142.697-.425.915-.281.218-.676.327-1.184.327h-.907zm0-.558h.916c.271 0 .478-.058.62-.173.143-.117.215-.286.215-.505a.656.656 0 0 0-.217-.517c-.145-.13-.344-.197-.597-.2h-.937v1.395zM9.866 12.069h-1.7L7.812 13H7.02l1.657-4h.684l1.66 4h-.795l-.359-.931zm-1.485-.56h1.271l-.636-1.66-.635 1.66zM15 13h-.762l-1.956-2.838V13h-.762V9h.762l1.962 2.849V9H15v4z" fill="#184E9E"/>
    <path d="M4 16.5c0-.276.249-.5.556-.5h7.888c.307 0 .556.224.556.5s-.249.5-.556.5H4.556C4.249 17 4 16.776 4 16.5zM4 18.5c0-.276.249-.5.556-.5h4.888c.307 0 .556.224.556.5s-.249.5-.556.5H4.556C4.249 19 4 18.776 4 18.5z" fill="#58B23B"/>
    <path d="M21.25 11.222c0 .946-.778 1.722-1.75 1.722s-1.75-.777-1.75-1.722S18.528 9.5 19.5 9.5s1.75.777 1.75 1.722zM15.532 18.5c.249-1.939 1.926-3.445 3.968-3.445s3.72 1.506 3.968 3.444h-7.936z" stroke="#58B23B"/>
</svg>
