<svg width="40" height="40" viewBox="0 0 40 40" fill="none" xmlns="http://www.w3.org/2000/svg">
<path d="M20 2.85742C29.4678 2.85742 37.1429 10.5325 37.1429 20.0003C37.1429 29.468 29.4678 37.1431 20 37.1431C10.5323 37.1431 2.85718 29.468 2.85718 20.0003C2.85718 10.5325 10.5323 2.85742 20 2.85742ZM20 5.71456C12.1103 5.71456 5.71432 12.1105 5.71432 20.0003C5.71432 27.8901 12.1103 34.286 20 34.286C27.8898 34.286 34.2857 27.8901 34.2857 20.0003C34.2857 12.1105 27.8898 5.71456 20 5.71456ZM20 25.1431C21.1046 25.1431 22 26.0386 22 27.1431C22 28.2477 21.1046 29.1431 20 29.1431C18.8955 29.1431 18 28.2477 18 27.1431C18 26.0386 18.8955 25.1431 20 25.1431ZM20.1052 11.4289C20.4446 11.4289 20.6577 11.4819 20.8439 11.5815C21.0302 11.6811 21.1764 11.8273 21.276 12.0135C21.3756 12.1998 21.4286 12.4128 21.4286 12.7522V21.534C21.4286 21.8734 21.3756 22.0865 21.276 22.2728C21.1764 22.459 21.0302 22.6052 20.8439 22.7048C20.6577 22.8044 20.4446 22.8574 20.1052 22.8574H19.8949C19.5554 22.8574 19.3424 22.8044 19.1561 22.7048C18.9699 22.6052 18.8237 22.459 18.7241 22.2728C18.6245 22.0865 18.5715 21.8734 18.5715 21.534V12.7522C18.5715 12.4128 18.6245 12.1998 18.7241 12.0135C18.8237 11.8273 18.9699 11.6811 19.1561 11.5815C19.3424 11.4819 19.5554 11.4289 19.8949 11.4289H20.1052Z" fill="#E90C29"/>
</svg>
