<svg width="40" height="40" viewBox="0 0 40 40" fill="none" xmlns="http://www.w3.org/2000/svg">
<path fill-rule="evenodd" clip-rule="evenodd" d="M5.37972 4.2691C4.76607 4.2691 4.26861 4.76656 4.26861 5.38021V12.9658C4.26861 13.5795 4.76607 14.0769 5.37972 14.0769H8.18059V11.3132V11.1112H7.27147C6.65782 11.1112 6.16036 10.6137 6.16036 10.0001C6.16036 9.38645 6.65782 8.88898 7.27147 8.88898H32.726C33.3397 8.88898 33.8371 9.38645 33.8371 10.0001C33.8371 10.6137 33.3397 11.1112 32.726 11.1112H31.817V11.3132V14.0769H34.6195C35.2331 14.0769 35.7306 13.5795 35.7306 12.9658V5.38021C35.7306 4.76656 35.2331 4.2691 34.6195 4.2691H5.37972ZM31.817 16.2992H34.6195C36.4604 16.2992 37.9528 14.8068 37.9528 12.9658V5.38021C37.9528 3.53926 36.4604 2.04688 34.6195 2.04688H5.37972C3.53877 2.04688 2.04639 3.53926 2.04639 5.38021V12.9658C2.04639 14.8068 3.53877 16.2992 5.37972 16.2992H8.18059V33.7374C8.18059 36.192 10.1704 38.1819 12.625 38.1819H27.3725C29.8271 38.1819 31.817 36.192 31.817 33.7374V16.2992ZM10.4028 11.3132H29.5947V33.7374C29.5947 34.9647 28.5998 35.9597 27.3725 35.9597H12.625C11.3977 35.9597 10.4028 34.9647 10.4028 33.7374V11.3132Z" fill="#184E9E"/>
<path fill-rule="evenodd" clip-rule="evenodd" d="M19.9999 15.731C20.6136 15.731 21.111 16.2284 21.111 16.8421V25.7381L23.4243 23.4248C23.8582 22.9909 24.5618 22.9909 24.9957 23.4248C25.4296 23.8587 25.4296 24.5623 24.9957 24.9962L20.8041 29.1877C20.6017 29.3999 20.3163 29.5321 19.9999 29.5321C19.9807 29.5321 19.9617 29.5316 19.9427 29.5307C19.8751 29.5272 19.809 29.5178 19.7451 29.5028C19.5504 29.4572 19.3656 29.3585 19.2138 29.2067C19.2101 29.203 19.2064 29.1993 19.2028 29.1955L15.0034 24.9962C14.5695 24.5623 14.5695 23.8587 15.0034 23.4248C15.4373 22.9909 16.1409 22.9909 16.5748 23.4248L18.8888 25.7388V16.8421C18.8888 16.2284 19.3863 15.731 19.9999 15.731Z" fill="#58B23B"/>
</svg>
