<svg width="20" height="15" viewBox="0 0 20 30" fill="none" xmlns="http://www.w3.org/2000/svg">
<path fill-rule="evenodd" clip-rule="evenodd" d="M6.00657 4.82611C5.68114 4.50067 5.1535 4.50067 4.82806 4.82611C4.50263 5.15155 4.50263 5.67918 4.82806 6.00462L8.82214 9.9987L4.82806 13.9928C4.50263 14.3182 4.50263 14.8459 4.82806 15.1713C5.1535 15.4967 5.68114 15.4967 6.00657 15.1713L10.0007 11.1772L13.9947 15.1713C14.3202 15.4967 14.8478 15.4967 15.1732 15.1713C15.4987 14.8459 15.4987 14.3182 15.1732 13.9928L11.1792 9.9987L15.1732 6.00462C15.4987 5.67918 15.4987 5.15155 15.1732 4.82611C14.8478 4.50067 14.3202 4.50067 13.9947 4.82611L10.0007 8.82019L6.00657 4.82611Z" fill="#5F6E85"/>
</svg>
