<svg width="16" height="16" viewBox="0 0 16 16" fill="none" xmlns="http://www.w3.org/2000/svg">
<path d="M2.66671 12.0006C1.92971 11.997 1.33337 11.3985 1.33337 10.6607V3.67898C1.33337 2.38388 2.38327 1.33398 3.67837 1.33398H10.66C11.3979 1.33398 11.9964 1.93032 12 2.66732H4.50921C3.49162 2.66732 2.66671 3.49223 2.66671 4.50982V12.0006ZM5.34004 4.00065H13.3267C14.0668 4.00065 14.6667 4.60059 14.6667 5.34065V13.3273C14.6667 14.0674 14.0668 14.6673 13.3267 14.6673H5.34004C4.59998 14.6673 4.00004 14.0674 4.00004 13.3273V5.34065C4.00004 4.60059 4.59998 4.00065 5.34004 4.00065ZM6.00004 5.33398C5.63185 5.33398 5.33337 5.63246 5.33337 6.00065V12.6673C5.33337 13.0355 5.63185 13.334 6.00004 13.334H12.6667C13.0349 13.334 13.3334 13.0355 13.3334 12.6673V6.00065C13.3334 5.63246 13.0349 5.33398 12.6667 5.33398H6.00004Z" fill="#99A2AD"/>
</svg>
