<svg width="96" height="97" viewBox="0 0 96 97" fill="none" xmlns="http://www.w3.org/2000/svg">
<path d="M48 0.5C74.5097 0.5 96 21.9903 96 48.5C96 75.0097 74.5097 96.5 48 96.5C21.4903 96.5 0 75.0097 0 48.5C0 21.9903 21.4903 0.5 48 0.5ZM62.7816 34.4816L41.4 55.8633L33.2184 47.6816C31.1095 45.5728 27.6905 45.5728 25.5816 47.6816C23.4728 49.7905 23.4728 53.2095 25.5816 55.3184L37.5816 67.3184C39.6905 69.4272 43.1095 69.4272 45.2184 67.3184L70.4184 42.1184C72.5272 40.0095 72.5272 36.5905 70.4184 34.4816C68.3095 32.3728 64.8905 32.3728 62.7816 34.4816Z" fill="#27A340"/>
</svg>
