<svg width="20" height="20" viewBox="0 0 20 20" fill="none" xmlns="http://www.w3.org/2000/svg">
    <path d="M10 1.429a8.571 8.571 0 1 1 0 17.143 8.571 8.571 0 0 1 0-17.143zm0 1.428a7.143 7.143 0 1 0 0 14.286 7.143 7.143 0 0 0 0-14.286zm.053 5.715c.17 0 .276.026.37.076a.52.52 0 0 1 .215.216c.05.093.076.2.076.37v4.39c0 .17-.026.276-.076.37a.52.52 0 0 1-.216.216.738.738 0 0 1-.37.076h-.104a.738.738 0 0 1-.37-.076.52.52 0 0 1-.216-.217.738.738 0 0 1-.076-.369v-4.39c0-.17.026-.277.076-.37a.52.52 0 0 1 .216-.216c.093-.05.2-.076.37-.076h.105zM10 5.429a1 1 0 1 1 0 2 1 1 0 0 1 0-2z" fill="#5F6E85"/>
</svg>
