<svg width="161" height="160" viewBox="0 0 161 160" fill="none" xmlns="http://www.w3.org/2000/svg">
<path d="M120.5 20C131.546 20 140.5 28.9543 140.5 40V120C140.5 131.046 131.546 140 120.5 140H40.5C29.4543 140 20.5 131.046 20.5 120V40C20.5 28.9543 29.4543 20 40.5 20H120.5ZM98.6655 82.1464C97.5747 81.2999 96.0042 81.4979 95.1577 82.5887L73.8333 110.067L59.1538 92.3925C59.0383 92.2535 58.9081 92.1274 58.7655 92.0164C57.6756 91.1688 56.1049 91.3651 55.2572 92.455L36.9716 115.965C36.6302 116.404 36.4449 116.944 36.4449 117.5C36.4449 118.881 37.5642 120 38.9449 120H122.167C122.708 120 123.234 119.825 123.667 119.5C124.771 118.672 124.995 117.105 124.167 116L99.1327 82.6214C98.9989 82.4429 98.8417 82.2832 98.6655 82.1464Z" fill="#5F6E85"/>
</svg>
