<svg width="64" height="26" viewBox="0 0 64 26" fill="none" xmlns="http://www.w3.org/2000/svg">
    <g clip-path="url(#a)">
        <path d="M24.391 3.413c.343 0 .678.058 1.004.174.329.116.626.288.892.512.266.224.477.495.633.81.158.317.235.678.235 1.085 0 .493-.125.931-.378 1.312-.25.382-.584.682-1 .9a2.872 2.872 0 0 1-1.356.327c-.327 0-.622-.033-.884-.099a3.216 3.216 0 0 1-.657-.229v2.506h-1.52V3.413h3.031zm-1.51 1.417v2.157c.16.065.355.12.585.168.23.047.464.071.706.071.436 0 .785-.12 1.044-.365a1.15 1.15 0 0 0 .387-.866c0-.385-.145-.676-.438-.871a1.797 1.797 0 0 0-1.028-.294h-1.255zm7.751.24c.299 0 .602.069.907.206.307.137.562.324.766.555v-.62h1.388v5.502h-1.388v-.927a2.228 2.228 0 0 1-.7.768 1.827 1.827 0 0 1-1.072.32 2.34 2.34 0 0 1-1.229-.337 2.424 2.424 0 0 1-.903-.98c-.225-.429-.339-.948-.339-1.558 0-.61.116-1.133.345-1.569.23-.436.54-.772.93-1.008.389-.235.822-.352 1.296-.352h-.001zm.285 1.35c-.291 0-.54.074-.75.224-.207.15-.369.343-.486.582-.116.24-.175.498-.175.775 0 .413.126.766.377 1.056.252.29.585.435 1 .435.247 0 .48-.065.694-.197.215-.13.39-.313.524-.55.135-.236.203-.521.203-.855v-.784a2.547 2.547 0 0 0-.64-.5 1.542 1.542 0 0 0-.747-.186zm5.356-1.209 1.574 3.507 1.532-3.507h1.584l-4.012 8.114h-1.574l1.661-3.016-2.383-5.098H36.273z" fill="#70C05B"/>
        <path d="M27.823 14.288v7.353h-.547l-4.34-4.455v4.401h-1.52v-7.352h.547l4.34 4.52V14.29h1.52zm4.362 1.656c.54 0 1.004.117 1.394.35.39.232.689.553.896.963.207.41.31.884.31 1.422v.587h-4c.072.37.254.668.546.893.292.225.65.338 1.072.338.4 0 .766-.08 1.093-.24.328-.159.59-.323.787-.489l-.012 1.285c-.174.152-.435.308-.782.463a2.745 2.745 0 0 1-1.14.234 3.042 3.042 0 0 1-1.493-.37 2.863 2.863 0 0 1-1.072-1.013c-.265-.43-.399-.92-.399-1.471 0-.538.12-1.027.361-1.47.242-.442.573-.8.995-1.072.423-.274.905-.41 1.444-.41zm-.033 1.21c-.343 0-.63.105-.864.316-.233.21-.392.493-.48.85h2.645c-.029-.393-.174-.684-.438-.876a1.417 1.417 0 0 0-.863-.29zm6.09-1.21a2.2 2.2 0 0 1 .907.207c.306.138.56.323.765.555v-.62h1.388v5.501h-1.388v-.926a2.225 2.225 0 0 1-.7.767 1.821 1.821 0 0 1-1.072.321c-.444 0-.854-.112-1.229-.337a2.439 2.439 0 0 1-.903-.98c-.225-.43-.338-.948-.338-1.558 0-.61.115-1.133.344-1.57.23-.435.54-.77.93-1.007.39-.235.822-.353 1.296-.353zm.283 1.351c-.291 0-.54.073-.75.224-.207.149-.37.342-.486.583a1.75 1.75 0 0 0-.174.773c0 .414.125.767.376 1.057.253.29.584.435 1 .435.248 0 .48-.065.694-.197.215-.13.39-.313.525-.55.134-.236.202-.52.202-.855v-.784a2.539 2.539 0 0 0-.64-.502 1.541 1.541 0 0 0-.747-.184zm7.96.338a1.484 1.484 0 0 0-.734-.197 1.1 1.1 0 0 0-.798.31 3.002 3.002 0 0 0-.556.768v3.072h-1.388v-5.501h1.388v1.035c.189-.327.412-.6.672-.818.258-.217.552-.326.88-.326.197 0 .374.033.535.098v1.559zm4.131-1.689a2.452 2.452 0 0 1 2.224 1.362c.23.435.345.959.345 1.57 0 .61-.115 1.128-.345 1.557-.23.429-.532.755-.907.98a2.322 2.322 0 0 1-1.219.338c-.407 0-.765-.107-1.071-.32a2.23 2.23 0 0 1-.7-.77v.927h-1.389v-7.842h1.388v2.963c.204-.232.457-.417.76-.555.303-.14.608-.209.914-.209zm-.285 1.362c-.27 0-.519.06-.749.18-.23.12-.442.285-.64.495v.784c-.007.334.057.62.193.855.134.237.31.418.529.545.219.128.452.19.7.19.416 0 .75-.143 1-.43.251-.286.377-.637.377-1.051a1.7 1.7 0 0 0-.175-.768 1.532 1.532 0 0 0-.491-.577 1.253 1.253 0 0 0-.744-.223zm5.051-1.22 1.575 3.507 1.53-3.508h1.585l-4.01 8.115h-1.576l1.661-3.016-2.383-5.099h1.618zM18.05 12.444l-1.67-1.664c-.375 3.262-3.074 5.794-6.349 5.794-3.532 0-6.396-2.944-6.396-6.573 0-3.296 2.362-6.026 5.44-6.499L7.37 1.8C4.02 2.934 1.6 6.175 1.6 9.997c0 1.767.517 3.409 1.403 4.776H3s1.859 3.477 6.822 8.722a.236.236 0 0 0 .344-.003c.897-.99 5.105-5.69 6.77-8.634h-.001a8.755 8.755 0 0 0 1.114-2.414z" fill="#1A509E"/>
        <path d="M17.507 2.447H9.776l2.261 2.393-5.963 6.214c.492 1.56 1.802 2.723 3.374 2.99l5.733-5.98 2.327 2.087V2.447h-.001z" fill="#70C05B"/>
    </g>
    <defs>
        <clipPath id="a">
            <path fill="#fff" transform="translate(1.6 1.8)" d="M0 0h59.2v22.4H0z"/>
        </clipPath>
    </defs>
</svg>
