<svg width="40" height="40" viewBox="0 0 40 40" fill="none" xmlns="http://www.w3.org/2000/svg">
<path d="M20 2C29.9411 2 38 10.0589 38 20C38 29.9411 29.9411 38 20 38C10.0589 38 2 29.9411 2 20C2 10.0589 10.0589 2 20 2ZM25.5431 14.7431L17.525 22.7612L14.4569 19.6931C13.6661 18.9023 12.3839 18.9023 11.5931 19.6931C10.8023 20.4839 10.8023 21.7661 11.5931 22.5569L16.0931 27.0569C16.8839 27.8477 18.1661 27.8477 18.9569 27.0569L28.4069 17.6069C29.1977 16.8161 29.1977 15.5339 28.4069 14.7431C27.6161 13.9523 26.3339 13.9523 25.5431 14.7431Z" fill="#27A340"/>
</svg>
