<svg width="18" height="18" viewBox="0 0 18 18" fill="none" xmlns="http://www.w3.org/2000/svg">
    <path fill-rule="evenodd" clip-rule="evenodd" d="M12.364 11.608h.835l4.476 4.495c.433.433.433 1.14 0 1.572a1.116 1.116 0 0 1-1.573 0l-4.487-4.484v-.834l-.285-.295a6.866 6.866 0 0 1-5.638 1.562c-2.936-.497-5.28-2.945-5.639-5.9A6.866 6.866 0 0 1 7.73.055c2.957.358 5.406 2.7 5.903 5.634a6.856 6.856 0 0 1-1.563 5.635l.295.285zM2.111 6.858a4.743 4.743 0 0 0 4.752 4.748 4.744 4.744 0 0 0 4.751-4.748 4.744 4.744 0 0 0-4.751-4.749A4.743 4.743 0 0 0 2.11 6.858z" fill="#5F6E85"/>
</svg>
