<svg width="24" height="24" viewBox="0 0 24 24" fill="none" xmlns="http://www.w3.org/2000/svg">
    <path fill-rule="evenodd" clip-rule="evenodd" d="M3.798 9.788a.486.486 0 0 0 .271.084c.15 0 .29-.065.364-.195a8.85 8.85 0 0 1 3.171-2.762c2.668-1.38 6.091-1.38 8.769-.009a8.758 8.758 0 0 1 3.162 2.743c.149.214.438.26.653.111a.467.467 0 0 0 .112-.652 9.681 9.681 0 0 0-3.498-3.032c-2.939-1.511-6.688-1.502-9.617.01a9.644 9.644 0 0 0-3.498 3.05.465.465 0 0 0 .111.652zm9.899 8.789c.802.55 1.781.83 2.891.83.131 0 .597-.01 1.13-.112a.465.465 0 0 0 .381-.541.465.465 0 0 0-.54-.383 6.164 6.164 0 0 1-.97.094c-.933 0-1.708-.215-2.37-.663-1.138-.764-1.81-2.005-1.81-3.32a.462.462 0 0 0-.466-.467.462.462 0 0 0-.466.467c0 1.623.83 3.153 2.22 4.095z" fill="#184E9E"/>
    <path d="m3.798 9.788-.085.124.002.001.083-.125zm.635-.111-.122-.088-.005.006-.003.007.13.075zm3.171-2.762.069.134-.069-.134zm8.769-.009-.069.134.069-.134zm3.162 2.743.123-.086-.001-.002-.122.088zm.653.111.085.124-.085-.124zm.112-.652-.123.087h.001l.122-.088zm-3.498-3.032-.069.133.069-.133zm-9.617.01.068.133-.069-.134zm-3.498 3.05-.123-.087.123.086zm10.01 9.44.085-.123h-.001l-.084.124zm4.02.719-.026-.148h-.002l.028.148zm.383-.541-.148.026v.001l.147-.027zm-.542-.383.026.148h.002l-.027-.147zm-3.339-.569.084-.124-.084.124zM4.07 9.722a.336.336 0 0 1-.187-.058l-.167.25c.108.071.23.108.354.108v-.3zm.234-.12c-.043.075-.127.12-.234.12v.3a.556.556 0 0 0 .494-.271l-.26-.149zm3.233-2.82A8.999 8.999 0 0 0 4.31 9.59l.244.175a8.7 8.7 0 0 1 3.118-2.715l-.137-.267zm8.905-.01c-2.72-1.393-6.195-1.393-8.906.01l.138.267c2.625-1.358 5.997-1.359 8.631-.01l.137-.266zm3.216 2.79a8.906 8.906 0 0 0-3.216-2.79l-.137.268a8.607 8.607 0 0 1 3.109 2.696l.244-.175zm.445.075a.315.315 0 0 1-.444-.074l-.246.171a.615.615 0 0 0 .861.15l-.17-.247zm.076-.441c.1.137.07.34-.076.441l.171.247a.617.617 0 0 0 .148-.865l-.243.177zm-3.445-2.987a9.531 9.531 0 0 1 3.444 2.986l.245-.175a9.831 9.831 0 0 0-3.552-3.078l-.137.267zm-9.48.01c2.886-1.49 6.585-1.499 9.48-.01l.137-.266c-2.981-1.534-6.782-1.524-9.754.009l.137.267zM3.81 9.222A9.494 9.494 0 0 1 7.253 6.22l-.137-.267a9.794 9.794 0 0 0-3.552 3.097l.245.173zm.075.443a.315.315 0 0 1-.074-.444l-.247-.171a.615.615 0 0 0 .15.862l.171-.247zm12.704 9.592c-1.084 0-2.033-.273-2.806-.804l-.17.247c.83.57 1.84.857 2.976.857v-.3zm1.1-.11c-.518.1-.974.11-1.1.11v.3c.136 0 .613-.01 1.157-.115l-.056-.294zm.264-.366a.315.315 0 0 1-.261.366l.052.296a.615.615 0 0 0 .504-.716l-.295.054zm-.366-.262a.315.315 0 0 1 .366.261l.295-.052a.615.615 0 0 0-.716-.504l.055.295zm-.998.096c.234 0 .615-.03.996-.096l-.051-.295a6.01 6.01 0 0 1-.945.09v.3zm-2.453-.688c.691.467 1.496.688 2.453.688v-.3c-.908 0-1.652-.209-2.285-.637l-.168.249zm-1.876-3.445c0 1.367.699 2.653 1.876 3.445l.168-.249c-1.098-.738-1.744-1.933-1.744-3.196h-.3zm-.316-.317c.178 0 .316.138.316.317h.3a.612.612 0 0 0-.616-.617v.3zm-.316.317c0-.179.138-.317.316-.317v-.3a.612.612 0 0 0-.616.617h.3zm2.154 3.97c-1.35-.915-2.154-2.399-2.154-3.97h-.3c0 1.675.856 3.25 2.286 4.219l.168-.248z" fill="#184E9E"/>
    <path d="M14.713 21.328a.548.548 0 0 1-.122-.018c-1.483-.41-2.453-.961-3.47-1.96a6.806 6.806 0 0 1-2.024-4.868c0-1.511 1.287-2.743 2.873-2.743 1.586 0 2.873 1.231 2.873 2.743 0 .998.868 1.81 1.94 1.81 1.073 0 1.94-.812 1.94-1.81 0-3.517-3.03-6.371-6.762-6.371-2.65 0-5.075 1.473-6.166 3.759-.364.755-.55 1.642-.55 2.612 0 .727.065 1.875.625 3.367a.455.455 0 0 1-.27.597.463.463 0 0 1-.598-.27 10.392 10.392 0 0 1-.68-3.694c0-1.12.214-2.136.634-3.023 1.24-2.602 3.992-4.29 7.005-4.29 4.244 0 7.696 3.274 7.696 7.303 0 1.511-1.288 2.743-2.873 2.743-1.586 0-2.873-1.232-2.873-2.743 0-.998-.868-1.81-1.94-1.81-1.073 0-1.941.812-1.941 1.81 0 1.595.616 3.088 1.744 4.207.887.877 1.735 1.362 3.05 1.726a.463.463 0 0 1 .327.569.455.455 0 0 1-.438.354zM17.418 4.978a.433.433 0 0 1-.215-.056c-1.79-.924-3.34-1.316-5.195-1.316-1.847 0-3.601.439-5.196 1.316a.475.475 0 0 1-.634-.187.472.472 0 0 1 .186-.634 11.713 11.713 0 0 1 5.644-1.427c1.987 0 3.722.438 5.624 1.417a.457.457 0 0 1 .196.625.457.457 0 0 1-.41.262z" fill="#184E9E" stroke="#184E9E" stroke-width=".3"/>
    <path d="M9.9 21.132a.437.437 0 0 1-.326-.14c-.811-.812-1.25-1.334-1.875-2.463-.643-1.147-.98-2.546-.98-4.048 0-2.77 2.37-5.028 5.28-5.028s5.28 2.257 5.28 5.028a.462.462 0 0 1-.466.466.462.462 0 0 1-.467-.466c0-2.258-1.95-4.095-4.347-4.095-2.397 0-4.346 1.838-4.346 4.095 0 1.343.298 2.584.867 3.591.597 1.073 1.007 1.53 1.726 2.258a.479.479 0 0 1 0 .662.512.512 0 0 1-.345.14z" fill="#58B23B" stroke="#58B23B" stroke-width=".3"/>
</svg>
