<svg width="36" height="36" viewBox="0 0 36 36" fill="none" xmlns="http://www.w3.org/2000/svg">
    <path fill-rule="evenodd" clip-rule="evenodd" d="M12.833 7.469h5.455c.613 0 1.204.05 1.77.157.57.106 1.073.29 1.511.56.438.267.786.641 1.05 1.12.26.478.391 1.091.391 1.836 0 1.346-.392 2.32-1.18 2.914 2.026.401 3.527.83 5.116 1.617a6.983 6.983 0 0 0 1.64-1.704c.712-1.077 1.069-2.421 1.069-4.038 0-1.491-.24-2.746-.722-3.762-.48-1.015-1.157-1.829-2.031-2.444-.874-.611-1.925-1.052-3.15-1.322C22.532 2.136 21.175 2 19.689 2h-6.855v5.469z" fill="#FDB933"/>
    <path fill-rule="evenodd" clip-rule="evenodd" d="M23.865 26.38c-.28.54-.65.966-1.116 1.28a4.73 4.73 0 0 1-1.616.67c-.614.134-1.255.201-1.926.201h-7.343v-8.782h7.475c1.487 0 2.681.35 3.585 1.051.904.703 1.356 1.877 1.356 3.519 0 .837-.139 1.524-.415 2.06zm-5.05-11.43h-6.951V7.468h.002V2H5v32h15.127c1.398 0 2.76-.178 4.088-.537 1.326-.358 2.504-.91 3.54-1.658 1.035-.747 1.858-1.71 2.471-2.891.611-1.18.918-2.578.918-4.192 0-1.999-.51-3.687-1.42-5.132-1.762-2.792-5.573-4.64-10.909-4.64z" fill="#F47920"/>
</svg>
