<svg width="24" height="24" viewBox="0 0 24 24" fill="none" xmlns="http://www.w3.org/2000/svg">
    <path d="M16.773 13.709H14.48a.433.433 0 0 0-.425.437v1.618c0 .241.19.438.425.438h2.293a.432.432 0 0 0 .425-.438v-1.618a.433.433 0 0 0-.425-.437zm-.424 1.618h-1.445v-.743h1.445v.743zM9.422 13.709H7.128a.433.433 0 0 0-.425.437v1.618c0 .241.191.438.425.438h2.294a.432.432 0 0 0 .424-.438v-1.618a.433.433 0 0 0-.424-.437zm-.425 1.618H7.553v-.743h1.444v.743zM12.44 13.999h-1.068a.432.432 0 0 0-.425.437c0 .241.191.438.425.438h1.068a.432.432 0 0 0 .424-.438.432.432 0 0 0-.425-.437z" fill="#58B23B"/>
    <path d="M20.5 10.209h-1.023V5.45c0-.988-.774-1.793-1.734-1.798L6.257 3.6c-.955-.004-1.733.792-1.737 1.776v4.832H3.496c-.594 0-1.096.495-1.096 1.112v1.36a1.11 1.11 0 0 0 1.1 1.111h1.024v2.87a1.819 1.819 0 0 0 .85 1.56v1.064c0 .616.505 1.11 1.104 1.11h1.423c.6.005 1.083-.494 1.083-1.106V18.475h6.032v.814c0 .617.485 1.111 1.083 1.111h1.424c.599 0 1.104-.494 1.104-1.111v-1.063c.53-.328.854-.923.85-1.561v-2.87H20.5c.6 0 1.1-.494 1.1-1.11V11.32a1.11 1.11 0 0 0-1.1-1.111zM4.524 12.92H3.501a.247.247 0 0 1-.251-.236V11.32a.247.247 0 0 1 .25-.236h1.024v1.837zm.846-7.06v-.463c0-.245.093-.481.259-.652a.872.872 0 0 1 .624-.267h.004l11.482.053a.901.901 0 0 1 .884.918v.473L5.37 5.86zM8.135 19.29a.232.232 0 0 1-.23.236H6.479c-.131 0-.255-.1-.255-.236v-.827c.043 0 .026.014.034.014h1.878v.813zm9.642 0c0 .136-.123.236-.255.236H16.1a.229.229 0 0 1-.234-.232v-.818h1.877c.005 0-.008-.013.034-.013v.827zm.85-2.629c0 .512-.387.94-.884.94H6.257c-.492 0-.883-.428-.883-.935v-4.71l13.253.06v4.645zM7.256 11.088A1.356 1.356 0 0 1 9 10.231c.396.144.701.463.837.87l-2.582-.013zm11.37.053-7.913-.036c-.238-1.233-1.401-2.029-2.6-1.784-.866.175-1.55.87-1.728 1.763l-1.011-.005V6.736l13.253.061v4.343zm2.125 1.543a.247.247 0 0 1-.25.237h-1.024v-1.837H20.5c.132-.005.242.1.25.236v1.364z" fill="#184E9E"/>
</svg>
