<svg width="36" height="36" viewBox="0 0 36 36" fill="none" xmlns="http://www.w3.org/2000/svg">
    <path fill="#fff" d="M0 0h36v36H0z"/>
    <rect y="17.053" width="36" height="1.895" rx=".947" fill="#184E9E"/>
    <rect x="18.947" y="3.79" width="8.526" height="1.895" rx=".947" transform="rotate(90 18.947 3.79)" fill="#184E9E"/>
    <path d="M23.631 16.105a5.632 5.632 0 1 1-11.263 0 5.632 5.632 0 0 1 11.263 0z" fill="#fff" stroke="#184E9E" stroke-width="2"/>
    <mask id="a" fill="#fff">
        <path d="M15.158 16.105a2.842 2.842 0 1 1 5.684 0h-5.684z"/>
    </mask>
    <path d="M15.158 16.105a2.842 2.842 0 1 1 5.684 0h-5.684z" fill="#58B23B" stroke="#58B23B" stroke-width="4" mask="url(#a)"/>
    <path d="M31.21 19.895a1.842 1.842 0 1 1-3.684 0 1.842 1.842 0 0 1 3.685 0zM8.473 19.895a1.842 1.842 0 1 1-3.684 0 1.842 1.842 0 0 1 3.684 0z" fill="#fff" stroke="#184E9E" stroke-width="2"/>
    <path d="M12.315 31.263h11.369M15.158 27.474h5.684" stroke="#58B23B" stroke-width="2" stroke-linecap="round"/>
</svg>
