<svg width="24" height="24" viewBox="0 0 24 24" fill="none" xmlns="http://www.w3.org/2000/svg">
    <path fill-rule="evenodd" clip-rule="evenodd" d="m18.774 10.563-6.182-6.318a.802.802 0 0 0-1.134-.005l-.005.005-6.182 6.326c-.302.305-.47.718-.465 1.147v6.72A1.604 1.604 0 0 0 6.32 20.04h11.403a1.604 1.604 0 0 0 1.515-1.603v-6.72c.001-.43-.166-.845-.465-1.155zm-8.354 7.875v-3.609h3.207v3.609H10.42zm7.218 0h-2.406v-3.809a.2.2 0 0 0-.2-.2H9.017a.2.2 0 0 0-.2.2v3.809H6.412v-6.752l5.613-5.733 5.613 5.765v6.72z" fill="#184E9E"/>
    <path d="M8.775 12.623a.6.6 0 0 1 .6-.6h5.296a.6.6 0 0 1 .6.6v1.084H8.775v-1.084z" fill="#58B23B"/>
</svg>
