<svg width="36" height="36" viewBox="0 0 36 36" fill="none" xmlns="http://www.w3.org/2000/svg">
    <g clip-path="url(#a)">
        <path fill="#fff" d="M0 0h36v36H0z"/>
        <mask id="b" fill="#fff">
            <path d="M4.862 22.76c-.512.203-1.097-.046-1.267-.57a15.505 15.505 0 0 1 24.61-16.76c.425.351.443.986.065 1.389-.378.402-1.008.418-1.437.071A13.507 13.507 0 0 0 5.455 21.448c.166.527-.08 1.107-.593 1.311z"/>
        </mask>
        <path d="M4.862 22.76c-.512.203-1.097-.046-1.267-.57a15.505 15.505 0 0 1 24.61-16.76c.425.351.443.986.065 1.389-.378.402-1.008.418-1.437.071A13.507 13.507 0 0 0 5.455 21.448c.166.527-.08 1.107-.593 1.311z" fill="#fff" stroke="#184E9E" stroke-width="4" mask="url(#b)"/>
        <mask id="c" fill="#fff">
            <path d="M31.813 12.969c.513-.204 1.097.045 1.268.57a15.504 15.504 0 0 1-24.61 16.759c-.425-.351-.443-.986-.065-1.389.377-.402 1.008-.418 1.437-.071A13.507 13.507 0 0 0 31.22 14.28c-.166-.526.08-1.107.592-1.311z"/>
        </mask>
        <path d="M31.813 12.969c.513-.204 1.097.045 1.268.57a15.504 15.504 0 0 1-24.61 16.759c-.425-.351-.443-.986-.065-1.389.377-.402 1.008-.418 1.437-.071A13.507 13.507 0 0 0 31.22 14.28c-.166-.526.08-1.107.592-1.311z" fill="#fff" stroke="#184E9E" stroke-width="4" mask="url(#c)"/>
        <path d="m29.11 2.141.033 4.684a1 1 0 0 1-.993 1.007l-4.684.034M7.566 33.587l-.034-4.684a1 1 0 0 1 .993-1.007l4.684-.034" stroke="#184E9E" stroke-width="2" stroke-linecap="round"/>
        <path d="M22.737 11.061c0-.353-.236-.64-.528-.64h-7.47c-.292 0-.528.287-.528.64 0 .354.236.64.528.64h2.138c1.274.002 2.37 1.09 2.623 2.602h-4.76c-.293 0-.53.286-.53.64 0 .354.237.64.53.64h4.76c-.253 1.512-1.35 2.6-2.623 2.601H14.74c-.217 0-.411.16-.492.404a.739.739 0 0 0 .128.702l5.342 6.114c.212.243.547.231.748-.026a.739.739 0 0 0-.021-.905l-4.377-5.008h.809c1.856-.004 3.43-1.657 3.695-3.882h1.637c.292 0 .528-.287.528-.64 0-.354-.236-.64-.528-.64h-1.637c-.117-.99-.503-1.906-1.096-2.602h2.733c.292 0 .528-.286.528-.64z" fill="#58B23B" stroke="#58B23B" stroke-width=".6"/>
    </g>
    <defs>
        <clipPath id="a">
            <path fill="#fff" d="M0 0h36v36H0z"/>
        </clipPath>
    </defs>
</svg>
